<svg width="1964" height="500" viewBox="0 0 1964 500" fill="none" xmlns="http://www.w3.org/2000/svg">
<path d="M576.077 213.161C576.077 177.827 582.963 146.531 596.735 119.273C610.507 92.0156 630.156 70.9834 655.685 56.1766C681.213 41.0334 710.772 33.4618 744.361 33.4618C783.325 33.4618 815.907 44.0621 842.107 65.2626C868.643 86.4631 885.27 115.235 891.988 151.579H848.657C841.939 127.013 829.343 108 810.869 94.5395C792.394 80.7423 769.889 73.8437 743.354 73.8437C719.169 73.8437 697.672 79.7328 678.861 91.5108C660.387 103.289 646.112 119.778 636.035 140.979C625.958 162.179 620.919 186.24 620.919 213.161C620.919 240.083 625.958 264.144 636.035 285.344C646.112 306.545 660.387 323.034 678.861 334.812C697.336 346.59 718.497 352.479 742.346 352.479C763.843 352.479 782.989 348.441 799.784 340.365C816.915 331.952 830.183 320.174 839.588 305.03C849.329 289.551 854.199 271.547 854.199 251.02V238.905H748.392V198.523H897.026V389.832H860.749L856.215 333.803C846.474 349.619 831.862 363.416 812.38 375.194C792.898 386.972 769.385 392.861 741.842 392.861C709.596 392.861 680.877 385.289 655.685 370.146C630.492 355.003 610.842 333.971 596.735 307.049C582.963 279.792 576.077 248.496 576.077 213.161Z" fill="white"/>
<path d="M949.461 36.4904H990.777V389.832H949.461V36.4904Z" fill="white"/>
<path d="M1289.08 351.974V389.832H1266.41C1249.95 389.832 1238.2 386.467 1231.14 379.737C1224.09 373.007 1220.39 363.079 1220.06 349.955C1200.24 378.559 1171.52 392.861 1133.9 392.861C1105.35 392.861 1082.34 386.131 1064.87 372.67C1047.74 359.209 1039.18 340.869 1039.18 317.65C1039.18 291.738 1047.91 271.884 1065.38 258.086C1083.18 244.289 1108.88 237.391 1142.47 237.391H1218.04V219.724C1218.04 202.898 1212.33 189.774 1200.91 180.351C1189.83 170.929 1174.21 166.217 1154.05 166.217C1136.25 166.217 1121.47 170.256 1109.72 178.332C1098.3 186.072 1091.24 196.504 1088.55 209.628H1047.24C1050.26 184.389 1061.35 164.703 1080.49 150.569C1099.97 136.436 1125.17 129.369 1156.07 129.369C1188.99 129.369 1214.35 137.445 1232.15 153.598C1250.29 169.414 1259.36 192.297 1259.36 222.247V333.298C1259.36 345.749 1265.07 351.974 1276.49 351.974H1289.08ZM1218.04 272.22H1138.44C1100.14 272.22 1081 286.522 1081 315.126C1081 327.914 1086.04 338.177 1096.11 345.917C1106.19 353.657 1119.79 357.527 1136.92 357.527C1162.12 357.527 1181.93 350.965 1196.38 337.841C1210.82 324.38 1218.04 306.713 1218.04 284.839V272.22Z" fill="white"/>
<path d="M1342.88 32.957C1350.6 32.957 1356.99 35.4809 1362.02 40.5286C1367.06 45.5764 1369.58 51.9702 1369.58 59.7101C1369.58 67.4499 1367.06 73.8437 1362.02 78.8915C1356.99 83.9392 1350.6 86.4631 1342.88 86.4631C1335.15 86.4631 1328.77 83.9392 1323.73 78.8915C1318.69 73.8437 1316.17 67.4499 1316.17 59.7101C1316.17 51.9702 1318.69 45.5764 1323.73 40.5286C1328.77 35.4809 1335.15 32.957 1342.88 32.957ZM1322.22 132.398H1363.54V389.832H1322.22V132.398Z" fill="white"/>
<path d="M1653.92 36.4904V389.832H1618.15L1612.6 348.441C1591.11 378.054 1561.72 392.861 1524.43 392.861C1500.58 392.861 1479.25 387.645 1460.44 377.213C1441.97 366.781 1427.36 351.638 1416.61 331.783C1406.2 311.929 1400.99 288.373 1400.99 261.115C1400.99 235.203 1406.2 212.32 1416.61 192.466C1427.36 172.611 1442.14 157.132 1460.95 146.026C1479.76 134.921 1500.92 129.369 1524.43 129.369C1545.26 129.369 1563.06 133.239 1577.84 140.979C1592.62 148.382 1604.21 158.646 1612.6 171.77V36.4904H1653.92ZM1528.46 356.013C1544.92 356.013 1559.53 352.143 1572.3 344.403C1585.4 336.326 1595.47 325.221 1602.53 311.088C1609.58 296.617 1613.11 280.296 1613.11 262.125C1613.11 243.616 1609.58 227.127 1602.53 212.657C1595.47 197.85 1585.4 186.408 1572.3 178.332C1559.53 170.256 1544.92 166.217 1528.46 166.217C1502.93 166.217 1482.28 175.135 1466.49 192.97C1451.04 210.469 1443.31 233.184 1443.31 261.115C1443.31 289.046 1451.04 311.929 1466.49 329.764C1482.28 347.263 1502.93 356.013 1528.46 356.013Z" fill="white"/>
<path d="M1818.53 392.861C1793.67 392.861 1771.5 387.309 1752.02 376.204C1732.87 365.098 1717.93 349.619 1707.18 329.764C1696.43 309.91 1691.05 287.027 1691.05 261.115C1691.05 235.203 1696.43 212.32 1707.18 192.466C1717.93 172.611 1732.87 157.132 1752.02 146.026C1771.5 134.921 1793.67 129.369 1818.53 129.369C1843.38 129.369 1865.38 134.921 1884.53 146.026C1904.01 157.132 1919.13 172.611 1929.88 192.466C1940.63 212.32 1946 235.203 1946 261.115C1946 287.027 1940.63 309.91 1929.88 329.764C1919.13 349.619 1904.01 365.098 1884.53 376.204C1865.38 387.309 1843.38 392.861 1818.53 392.861ZM1818.53 356.013C1835.32 356.013 1850.1 351.974 1862.87 343.898C1875.97 335.822 1886.04 324.548 1893.1 310.078C1900.15 295.608 1903.68 279.287 1903.68 261.115C1903.68 242.943 1900.15 226.622 1893.1 212.152C1886.04 197.682 1875.97 186.408 1862.87 178.332C1850.1 170.256 1835.32 166.217 1818.53 166.217C1801.73 166.217 1786.79 170.256 1773.69 178.332C1760.92 186.408 1751.01 197.682 1743.96 212.152C1736.9 226.622 1733.38 242.943 1733.38 261.115C1733.38 279.287 1736.9 295.608 1743.96 310.078C1751.01 324.548 1760.92 335.822 1773.69 343.898C1786.79 351.974 1801.73 356.013 1818.53 356.013Z" fill="white"/>
<path d="M383.213 173.966H183.688C176.022 173.966 169.808 180.191 169.808 187.871V236.541C169.808 244.221 176.022 250.447 183.688 250.447H384.915C391.297 250.447 396.604 255.37 397.093 261.745V387.765C397.093 395.445 403.307 401.67 410.973 401.67H458.686C466.351 401.67 472.566 395.445 472.566 387.765V264.352C472.566 256.672 466.351 250.447 458.686 250.447H411.841C403.696 250.447 397.093 243.832 397.093 235.672V187.871C397.093 180.191 390.879 173.966 383.213 173.966Z" fill="#BFF549"/>
<path d="M322.493 388.62V339.951C322.493 332.271 316.279 326.045 308.613 326.045H147.258C117.553 326.045 93.4726 301.92 93.4726 272.161V119.199C93.4726 107.679 102.794 98.3403 114.293 98.3403H382.351C390.016 98.3403 396.231 92.1146 396.231 84.4347V35.765C396.231 28.0851 390.016 21.8594 382.351 21.8594H115.16C61.5001 21.8594 18 65.4397 18 119.199V274.206C18 307.398 31.1612 339.23 54.5883 362.701L169.813 478.138V416.432C169.813 408.752 176.027 402.526 183.693 402.526H308.613C316.279 402.526 322.493 396.3 322.493 388.62Z" fill="#BFF549"/>
</svg>
